<svg xmlns="http://www.w3.org/2000/svg" width="411" height="411" viewBox="-109.902 -2.512 411 411" enable-background="new -109.902 -2.512 411 411"><path fill="none" stroke="#000" stroke-width="8" stroke-linecap="round" d="M89.22 402L4 231.207M89.22 402l98-235M4 231.207h110.72M114.72 231.207L89.22 402M114.72 231.207L187.22 167"/><g fill="none" stroke="#000" stroke-width="8" stroke-linecap="round"><path d="M4 231.207l4.046-4.43"/><path stroke-dasharray="10.708,10.708" d="M15.267 218.87l39.717-43.486"/><path d="M58.595 171.43L62.64 167"/></g><g fill="none" stroke="#000" stroke-width="8" stroke-linecap="round"><path d="M62.64 167h6"/><path stroke-dasharray="12.5087,12.5087" d="M81.15 167h93.815"/><path d="M181.22 167h6"/></g><path fill="none" stroke="#000" stroke-width="8" stroke-linecap="round" d="M4 231.207L87.22 4M187.22 167L87.22 4M87.22 4l27.5 227.207"/><g fill="none" stroke="#000" stroke-width="8" stroke-linecap="round"><path d="M87.22 4l-.895 5.933"/><path stroke-dasharray="11.7571,11.7571" d="M84.572 21.56l-20.16 133.694"/><path d="M63.536 161.067L62.64 167"/></g><g fill="none" stroke="#000" stroke-width="8" stroke-linecap="round"><path d="M62.64 167l.675 5.962"/><path stroke-dasharray="11.8157,11.8157" d="M64.643 184.703L87.88 390.168"/><path d="M88.545 396.038L89.22 402"/></g></svg>
